<svg width="16" height="16" viewBox="0 0 16 16" fill="none" xmlns="http://www.w3.org/2000/svg">
    <rect x="0.5" y="0.5" width="15" height="15" rx="7.5" fill="#CF2E1E" stroke="#CF2E1E" />
    <path
        d="M8.87159 7.99935L11.2477 10.3737C11.37 10.496 11.4333 10.6448 11.4333 10.8154C11.4333 10.9003 11.416 10.981 11.3806 11.0563C11.3495 11.1296 11.3049 11.195 11.2477 11.2521C11.1927 11.3071 11.1269 11.3511 11.052 11.3848L11.0497 11.3858L11.0497 11.3858C10.9748 11.4173 10.8947 11.4327 10.8107 11.4327C10.6385 11.4327 10.4891 11.3723 10.3688 11.2521L10.3688 11.2521L7.99752 8.8778L5.62627 11.2521L5.6262 11.2521C5.50596 11.3723 5.35656 11.4327 5.18433 11.4327C5.01312 11.4327 4.8641 11.3746 4.74363 11.2582L4.74127 11.2559L4.74131 11.2558C4.62473 11.1355 4.56663 10.9865 4.56663 10.8154C4.56663 10.6432 4.62708 10.4939 4.74727 10.3738L8.87159 7.99935ZM8.87159 7.99935L11.2477 5.62499C11.3675 5.5053 11.4284 5.35782 11.4284 5.18822C11.4284 5.10452 11.4132 5.02481 11.3818 4.95013C11.3511 4.87353 11.3064 4.80683 11.2477 4.75142C11.1928 4.6933 11.1267 4.64896 11.0509 4.61823C10.9759 4.58321 10.8954 4.56602 10.8107 4.56602C10.6401 4.56602 10.4912 4.62919 10.3688 4.75145L10.3688 4.75152L7.99745 7.12584L5.62132 4.75145C5.50154 4.63177 5.35398 4.5709 5.18433 4.5709C5.09683 4.5709 5.01433 4.58794 4.93843 4.62349C4.86656 4.65399 4.80191 4.69593 4.74494 4.74906L4.7449 4.74902L4.74246 4.75145C4.68648 4.80739 4.6435 4.87443 4.61286 4.95096C4.58198 5.02811 4.56663 5.10907 4.56663 5.1931C4.56663 5.3627 4.62757 5.51018 4.74735 5.62987L7.11863 7.99942L4.74735 10.3737L8.87159 7.99935Z"
        fill="white"
        stroke="white"
        strokeWidth="0.2"
    />
</svg>