<svg width="16" height="16" viewBox="0 0 16 16" fill="none" xmlns="http://www.w3.org/2000/svg">
<g id="xmark / icon_delete">
<rect width="16" height="16" rx="8" fill="#EDF1F6"/>
<g id="Group 1241">
<path id="Union" fill-rule="evenodd" clip-rule="evenodd" d="M5.85355 5.14645C5.65829 4.95118 5.34171 4.95118 5.14645 5.14645C4.95118 5.34171 4.95118 5.65829 5.14645 5.85355L7.29464 8.00175L5.15247 10.1439C4.9572 10.3392 4.9572 10.6558 5.15247 10.851C5.34773 11.0463 5.66431 11.0463 5.85957 10.851L8.00175 8.70885L10.1439 10.851C10.3392 11.0463 10.6558 11.0463 10.851 10.851C11.0463 10.6558 11.0463 10.3392 10.851 10.1439L8.70885 8.00175L10.857 5.85355C11.0523 5.65829 11.0523 5.34171 10.857 5.14645C10.6618 4.95118 10.3452 4.95118 10.1499 5.14645L8.00175 7.29464L5.85355 5.14645Z" fill="#8C94AB"/>
</g>
</g>
</svg>
