<svg width="24" height="24" viewBox="0 0 24 24" fill="none" xmlns="http://www.w3.org/2000/svg">
<g id=" icon_menu">
<g id="Group 1183">
<path id="Vector 545 (Stroke)" fill-rule="evenodd" clip-rule="evenodd" d="M5.25 7.5C5.25 7.08579 5.58579 6.75 6 6.75H18C18.4142 6.75 18.75 7.08579 18.75 7.5C18.75 7.91421 18.4142 8.25 18 8.25H6C5.58579 8.25 5.25 7.91421 5.25 7.5Z" fill="#8C94AB"/>
<path id="Vector 545 (Stroke)_2" fill-rule="evenodd" clip-rule="evenodd" d="M5.25 12C5.25 11.5858 5.58579 11.25 6 11.25H18C18.4142 11.25 18.75 11.5858 18.75 12C18.75 12.4142 18.4142 12.75 18 12.75H6C5.58579 12.75 5.25 12.4142 5.25 12Z" fill="#8C94AB"/>
<path id="Vector 545 (Stroke)_3" fill-rule="evenodd" clip-rule="evenodd" d="M5.25 16.5C5.25 16.0858 5.58579 15.75 6 15.75H18C18.4142 15.75 18.75 16.0858 18.75 16.5C18.75 16.9142 18.4142 17.25 18 17.25H6C5.58579 17.25 5.25 16.9142 5.25 16.5Z" fill="#8C94AB"/>
</g>
</g>
</svg>
