<svg width="16" height="16" viewBox="0 0 16 16" fill="none" xmlns="http://www.w3.org/2000/svg">
<g id="icon_edit">
<g id="Group 1288">
<path id="Rectangle 3467724 (Stroke)" fill-rule="evenodd" clip-rule="evenodd" d="M9.27832 3.72053C9.41093 3.72053 9.53811 3.77321 9.63187 3.86698L11.7532 5.9883C11.9485 6.18356 11.9485 6.50015 11.7532 6.69541L5.16151 13.2871C5.06774 13.3809 4.94056 13.4335 4.80795 13.4335L2.68663 13.4335C2.41049 13.4335 2.18663 13.2097 2.18663 12.9335L2.18663 10.8122C2.18663 10.6796 2.23931 10.5524 2.33308 10.4587L8.92477 3.86698C9.01854 3.77321 9.14571 3.72053 9.27832 3.72053ZM9.27832 4.92764L3.18664 11.0193L3.18663 12.4335L4.60085 12.4335L10.6925 6.34185L9.27832 4.92764Z" fill="#8C94AB"/>
<path id="Rectangle 3467725 (Stroke)" fill-rule="evenodd" clip-rule="evenodd" d="M10.6455 2.1464C10.8407 1.95114 11.1573 1.95114 11.3526 2.1464L13.4695 4.26334C13.6644 4.45822 13.6648 4.77405 13.4705 4.96947L11.8905 6.55825C11.7954 6.6538 11.6659 6.70695 11.5311 6.70565C11.3964 6.70436 11.2679 6.64873 11.1747 6.55137L9.10006 4.38336C8.91211 4.18694 8.91553 3.87635 9.10776 3.68411L10.6455 2.1464ZM10.999 3.20706L10.1607 4.04536L11.5428 5.48968L12.4098 4.61787L10.999 3.20706Z" fill="#8C94AB"/>
</g>
</g>
</svg>
