<svg width="16" height="16" viewBox="0 0 16 16" fill="none" xmlns="http://www.w3.org/2000/svg">
    <circle cx="8" cy="8" r="8" fill="#0BD236" />
    <g clipPath="url(#clip0_2230_144829)">
        <path
        fillRule="evenodd"
        clipRule="evenodd"
        d="M4.19526 7.77534C4.45561 7.51499 4.87772 7.51499 5.13807 7.77534L7.1814 9.81867C7.44175 10.079 7.44175 10.5011 7.1814 10.7615C6.92106 11.0218 6.49894 11.0218 6.2386 10.7615L4.19526 8.71815C3.93491 8.4578 3.93491 8.03569 4.19526 7.77534Z"
        fill="white"
        />
        <path
        fillRule="evenodd"
        clipRule="evenodd"
        d="M11.8047 5.19526C12.0651 5.45561 12.0651 5.87772 11.8047 6.13807L7.18141 10.7614C6.92106 11.0218 6.49895 11.0218 6.2386 10.7614C5.97825 10.5011 5.97825 10.0789 6.2386 9.8186L10.8619 5.19526C11.1223 4.93491 11.5444 4.93491 11.8047 5.19526Z"
        fill="white"
        />
    </g>
    <defs>
        <clipPath id="clip0_2230_144829">
        <rect width="8" height="8" fill="white" transform="translate(4 4)" />
        </clipPath>
    </defs>
</svg>